<svg width="100" height="100" viewBox="0 0 100 100" fill="none" xmlns="http://www.w3.org/2000/svg">
<g clip-path="url(#clip0_976_2313)">
<path d="M58.174 24.9991C58.1575 24.9892 58.1409 24.9809 58.126 24.971C58.1095 24.9611 58.093 24.9528 58.0781 24.9429C58.0616 24.9329 58.045 24.9247 58.0301 24.9148C58.0136 24.9048 57.9971 24.8966 57.9822 24.8866C57.9656 24.8767 57.9491 24.8684 57.9342 24.8585C57.9177 24.8486 57.9011 24.8403 57.8863 24.8304C57.8697 24.8205 57.8532 24.8122 57.8383 24.8023C57.8218 24.7924 57.8052 24.7841 57.7903 24.7742C57.7738 24.7643 57.7573 24.756 57.7424 24.7461C57.7258 24.7361 57.7093 24.7279 57.6944 24.718C57.6779 24.708 57.6613 24.6998 57.6465 24.6898C57.6299 24.6799 57.6134 24.6717 57.5985 24.6617C57.582 24.6518 57.5654 24.6435 57.5505 24.6336C57.534 24.6237 57.5175 24.6154 57.5026 24.6055C57.486 24.5956 57.4695 24.5873 57.4546 24.5774C57.4381 24.5675 57.4216 24.5592 57.4067 24.5493C57.3901 24.5394 57.3736 24.5311 57.3587 24.5212C57.3422 24.5112 57.3256 24.503 57.3091 24.493C57.2926 24.4831 57.2777 24.4749 57.2611 24.4649C57.2446 24.455 57.2281 24.4467 57.2132 24.4368C57.1966 24.4269 57.1801 24.4186 57.1652 24.4087C57.1487 24.3988 57.1322 24.3905 57.1173 24.3806C57.1007 24.3707 57.0842 24.3624 57.0693 24.3525C57.0528 24.3426 57.0362 24.3343 57.0214 24.3244C57.0048 24.3144 56.9883 24.3062 56.9734 24.2963C56.9569 24.2863 56.9403 24.2781 56.9254 24.2681C56.9089 24.2582 56.8924 24.2499 56.8775 24.24C56.8609 24.2301 56.8444 24.2218 56.8295 24.2119C56.813 24.202 56.7964 24.1937 56.7816 24.1838C56.765 24.1739 56.7485 24.1656 56.7336 24.1557C56.7171 24.1458 56.7005 24.1375 56.6856 24.1276C56.6691 24.1176 56.6526 24.1094 56.6377 24.0995C56.6211 24.0895 56.6046 24.0813 56.5897 24.0713C56.5732 24.0614 56.5566 24.0532 56.5418 24.0432C56.5252 24.0333 56.5087 24.025 56.4938 24.0151C56.4773 24.0052 56.4607 23.9969 56.4459 23.987C56.4293 23.9771 56.4128 23.9688 56.3979 23.9589C56.3814 23.949 56.3648 23.9407 56.3499 23.9308C56.3334 23.9209 56.3169 23.9126 56.302 23.9027C56.2854 23.8927 56.2689 23.8845 56.254 23.8746C56.2375 23.8646 56.2209 23.8564 56.2044 23.8464C56.1879 23.8365 56.173 23.8282 56.1565 23.8183C56.1399 23.8084 56.1234 23.8001 56.1085 23.7902C56.092 23.7803 56.0754 23.772 56.0605 23.7621C56.044 23.7522 56.0275 23.7439 56.0126 23.734C55.996 23.7241 55.9795 23.7158 55.9646 23.7059C55.9481 23.6959 55.9315 23.6877 55.9167 23.6778C55.9001 23.6678 55.8836 23.6596 55.8687 23.6496C55.8522 23.6397 55.8356 23.6315 55.8207 23.6215C55.8042 23.6116 55.7877 23.6033 55.7728 23.5934C55.7562 23.5835 55.7397 23.5752 55.7248 23.5653C55.7083 23.5554 55.6917 23.5471 55.6769 23.5372C55.6603 23.5273 55.6438 23.519 55.6289 23.5091C55.6124 23.4992 55.5958 23.4909 55.5809 23.481C55.5644 23.471 55.5479 23.4628 55.533 23.4529C55.5165 23.4429 55.4999 23.4347 55.485 23.4247C55.4685 23.4148 55.452 23.4065 55.4371 23.3966C55.4205 23.3867 55.404 23.3784 55.3891 23.3685C55.3726 23.3586 55.356 23.3503 55.3412 23.3404C55.3246 23.3305 55.3081 23.3222 55.2932 23.3123C55.2767 23.3024 55.2601 23.2941 55.2452 23.2842C55.2287 23.2742 55.2122 23.266 55.1973 23.2561C55.1807 23.2461 55.1642 23.2379 55.1477 23.2279C55.1311 23.218 55.1163 23.2098 55.0997 23.1998C55.0832 23.1899 55.0666 23.1816 55.0518 23.1717C55.0352 23.1618 55.0187 23.1535 55.0038 23.1436C54.9873 23.1337 54.9707 23.1254 54.9558 23.1155C54.9393 23.1056 54.9228 23.0973 54.9079 23.0874C54.8913 23.0774 54.8748 23.0692 54.8599 23.0593C54.8434 23.0493 54.8268 23.0411 54.812 23.0311C54.7954 23.0212 54.7789 23.013 54.764 23.003C54.7475 22.9931 54.7309 22.9848 54.716 22.9749C54.6995 22.965 54.683 22.9567 54.6681 22.9468C54.6516 22.9369 54.635 22.9286 54.6201 22.9187C54.6036 22.9088 54.5871 22.9005 54.5722 22.8906C54.5556 22.8807 54.5391 22.8724 54.5242 22.8625C54.5077 22.8525 54.4911 22.8443 54.4763 22.8344C54.4597 22.8244 54.4432 22.8162 54.4283 22.8062C54.4118 22.7963 54.3952 22.788 54.3803 22.7781C54.3638 22.7682 54.3473 22.7599 54.3324 22.75C54.3158 22.7401 54.2993 22.7318 54.2844 22.7219C54.2679 22.712 54.2513 22.7037 54.2365 22.6938C54.2199 22.6839 54.2034 22.6756 54.1885 22.6657C54.172 22.6557 54.1554 22.6475 54.1405 22.6376C54.124 22.6276 54.1075 22.6194 54.0926 22.6094C54.0761 22.5995 54.0595 22.5913 54.043 22.5813C54.0264 22.5714 54.0116 22.5631 53.995 22.5532C53.9785 22.5433 53.9619 22.535 53.9471 22.5251C53.9305 22.5152 53.914 22.5069 53.8991 22.497C53.8826 22.4871 53.866 22.4788 53.8511 22.4689C53.8346 22.459 53.8181 22.4507 53.8032 22.4408C53.7866 22.4308 53.7701 22.4226 53.7552 22.4127C53.7387 22.4027 53.7221 22.3945 53.7073 22.3845C53.6907 22.3746 53.6742 22.3663 53.6593 22.3564C53.6428 22.3465 53.6262 22.3382 53.6114 22.3283C53.5948 22.3184 53.5783 22.3101 53.5634 22.3002C53.5469 22.2903 53.5303 22.282 53.5154 22.2721C53.4989 22.2622 53.4824 22.2539 53.4675 22.244C53.4509 22.234 53.4344 22.2258 53.4195 22.2159C53.403 22.2059 53.3864 22.1977 53.3716 22.1877C53.355 22.1778 53.3385 22.1696 53.3236 22.1596C53.3071 22.1497 53.2905 22.1414 53.2756 22.1315C53.2591 22.1216 53.2426 22.1133 53.2277 22.1034C53.2111 22.0935 53.1946 22.0852 53.1797 22.0753C53.1632 22.0654 53.1467 22.0571 53.1318 22.0472C53.1152 22.0373 53.0987 22.029 53.0838 22.0191C53.0673 22.0091 53.0507 22.0009 53.0359 21.9909C53.0193 21.981 53.0028 21.9728 52.9879 21.9628C52.9714 21.9529 52.9548 21.9446 52.9399 21.9347C52.9234 21.9248 52.9069 21.9165 52.892 21.9066C52.8754 21.8967 52.8589 21.8884 52.844 21.8785C52.8275 21.8686 52.8109 21.8603 52.7961 21.8504C52.7795 21.8405 52.763 21.8322 52.7481 21.8223C52.7316 21.8123 52.715 21.8041 52.7001 21.7942C52.6836 21.7842 52.6671 21.776 52.6522 21.766C52.6356 21.7561 52.6191 21.7478 52.6042 21.7379C52.5877 21.728 52.5712 21.7197 52.5563 21.7098C52.5397 21.6999 52.5232 21.6916 52.5083 21.6817C52.4918 21.6718 52.4752 21.6635 52.4603 21.6536C52.4438 21.6437 52.4273 21.6354 52.4124 21.6255C52.3959 21.6155 52.3793 21.6073 52.3644 21.5974C52.3479 21.5874 52.3314 21.5792 52.3165 21.5692C52.2999 21.5593 52.2834 21.5511 52.2685 21.5411C52.252 21.5312 52.2354 21.5229 52.2206 21.513C52.204 21.5031 52.1875 21.4948 52.1726 21.4849C52.1561 21.475 52.1395 21.4667 52.1246 21.4568C52.1081 21.4469 52.0916 21.4386 52.0767 21.4287C52.0601 21.4188 52.0436 21.4105 52.0287 21.4006C52.0122 21.3906 51.9956 21.3824 51.9808 21.3724C51.9642 21.3625 51.9477 21.3543 51.9328 21.3443C51.9163 21.3344 51.8997 21.3261 51.8832 21.3162C51.8667 21.3063 51.8518 21.298 51.8352 21.2881C51.8187 21.2782 51.8022 21.2699 51.7873 21.26C51.7707 21.2501 51.7542 21.2418 51.7393 21.2319C51.7228 21.222 51.7062 21.2137 51.6914 21.2038C51.6748 21.1938 51.6583 21.1856 51.6434 21.1757C51.6269 21.1657 51.6103 21.1575 51.5954 21.1475C51.5789 21.1376 51.5624 21.1294 51.5475 21.1194C51.531 21.1095 51.5144 21.1012 51.4995 21.0913C51.483 21.0814 51.4665 21.0731 51.4516 21.0632C51.435 21.0533 51.4185 21.045 51.4036 21.0351C51.3871 21.0252 51.3705 21.0169 51.3557 21.007C51.3391 20.9971 51.3226 20.9888 51.3077 20.9789C51.2912 20.9689 51.2746 20.9607 51.2597 20.9507C51.2432 20.9408 51.2267 20.9326 51.2118 20.9226C51.1969 20.9144 51.182 20.9061 51.1688 20.8962C47.8778 18.8588 42.92 18.8637 39.2106 20.1255C38.9692 20.2082 38.8088 20.4381 38.817 20.6928C39.0403 28.1544 39.1478 34.9033 39.1478 41.3248C39.1478 43.6201 40.5237 45.0192 41.4068 45.6807C39.8523 47.1889 39.1478 49.2908 39.1478 50.842C39.1478 58.7799 39.0072 64.9368 38.8452 72.0677C38.8005 74.0125 38.7542 76.0449 38.7079 78.2246C38.7029 78.461 38.8418 78.6661 39.0453 78.7604C39.0618 78.7703 39.0767 78.7802 39.0932 78.7885C39.1097 78.7984 39.1246 78.8083 39.1412 78.8166C39.1577 78.8265 39.1726 78.8364 39.1891 78.8447C39.2057 78.8546 39.2205 78.8645 39.2371 78.8728C39.2536 78.8827 39.2685 78.8927 39.285 78.9009C39.3016 78.9108 39.3165 78.9208 39.333 78.929C39.3495 78.939 39.3644 78.9489 39.381 78.9572C39.3975 78.9671 39.4124 78.977 39.4289 78.9853C39.4455 78.9952 39.4603 79.0051 39.4769 79.0134C39.4934 79.0233 39.5083 79.0332 39.5248 79.0415C39.5414 79.0514 39.5563 79.0613 39.5728 79.0696C39.5893 79.0795 39.6042 79.0894 39.6208 79.0977C39.6373 79.1076 39.6522 79.1176 39.6687 79.1258C39.6852 79.1358 39.7001 79.1457 39.7167 79.1539C39.7332 79.1639 39.7481 79.1738 39.7646 79.1821C39.7812 79.192 39.796 79.2019 39.8126 79.2102C39.8291 79.2201 39.844 79.23 39.8605 79.2383C39.8771 79.2482 39.892 79.2581 39.9085 79.2664C39.925 79.2763 39.9399 79.2862 39.9565 79.2945C39.973 79.3044 39.9879 79.3144 40.0044 79.3226C40.021 79.3325 40.0358 79.3425 40.0524 79.3507C40.0689 79.3607 40.0838 79.3706 40.1003 79.3789C40.1169 79.3888 40.1318 79.3987 40.1483 79.407C40.1648 79.4169 40.1797 79.4268 40.1963 79.4351C40.2128 79.445 40.2277 79.4549 40.2442 79.4632C40.2607 79.4731 40.2756 79.483 40.2922 79.4913C40.3087 79.5012 40.3236 79.5112 40.3401 79.5194C40.3567 79.5293 40.3715 79.5393 40.3881 79.5475C40.4046 79.5575 40.4195 79.5674 40.436 79.5757C40.4526 79.5856 40.4675 79.5955 40.484 79.6038C40.5005 79.6137 40.5154 79.6236 40.532 79.6319C40.5485 79.6418 40.5634 79.6517 40.5799 79.66C40.5965 79.6699 40.6113 79.6798 40.6279 79.6881C40.6444 79.698 40.6593 79.7079 40.6758 79.7162C40.6924 79.7261 40.7073 79.7361 40.7238 79.7443C40.7403 79.7543 40.7552 79.7642 40.7718 79.7724C40.7883 79.7824 40.8032 79.7923 40.8197 79.8006C40.8362 79.8105 40.8511 79.8204 40.8677 79.8287C40.8842 79.8386 40.8991 79.8485 40.9156 79.8568C40.9322 79.8667 40.947 79.8766 40.9636 79.8849C40.9801 79.8948 40.995 79.9047 41.0115 79.913C41.0281 79.9229 41.043 79.9329 41.0595 79.9411C41.076 79.9511 41.0909 79.961 41.1075 79.9692C41.124 79.9792 41.1389 79.9891 41.1554 79.9974C41.172 80.0073 41.1868 80.0172 41.2034 80.0255C41.2199 80.0354 41.2348 80.0453 41.2513 80.0536C41.2679 80.0635 41.2828 80.0734 41.2993 80.0817C41.3158 80.0916 41.3307 80.1015 41.3473 80.1098C41.3638 80.1197 41.3787 80.1296 41.3952 80.1379C41.4117 80.1478 41.4266 80.1578 41.4432 80.166C41.4597 80.176 41.4746 80.1859 41.4911 80.1941C41.5077 80.2041 41.5225 80.214 41.5391 80.2223C41.5556 80.2322 41.5705 80.2421 41.587 80.2504C41.6036 80.2603 41.6185 80.2702 41.635 80.2785C41.6515 80.2884 41.6664 80.2983 41.683 80.3066C41.6995 80.3165 41.7144 80.3264 41.7309 80.3347C41.7475 80.3446 41.7623 80.3546 41.7789 80.3628C41.7954 80.3728 41.8103 80.3827 41.8268 80.3909C41.8434 80.4009 41.8583 80.4108 41.8748 80.4191C41.8913 80.429 41.9062 80.4389 41.9228 80.4472C41.9393 80.4571 41.9542 80.467 41.9707 80.4753C41.9872 80.4852 42.0021 80.4951 42.0187 80.5034C42.0352 80.5133 42.0501 80.5232 42.0666 80.5315C42.0832 80.5414 42.098 80.5514 42.1146 80.5596C42.1311 80.5695 42.146 80.5795 42.1625 80.5877C42.1791 80.5977 42.194 80.6076 42.2105 80.6158C42.227 80.6258 42.2419 80.6357 42.2585 80.644C42.275 80.6539 42.2899 80.6638 42.3064 80.6721C42.323 80.682 42.3378 80.6919 42.3544 80.7002C42.3709 80.7101 42.3858 80.72 42.4023 80.7283C42.4189 80.7382 42.4338 80.7482 42.4503 80.7564C42.4668 80.7663 42.4817 80.7763 42.4983 80.7845C42.5148 80.7945 42.5297 80.8044 42.5462 80.8126C42.5627 80.8226 42.5776 80.8325 42.5942 80.8408C42.6107 80.8507 42.6256 80.8606 42.6421 80.8689C42.6587 80.8788 42.6735 80.8887 42.6901 80.897C42.7066 80.9069 42.7215 80.9168 42.738 80.9251C42.7546 80.935 42.7695 80.9449 42.786 80.9532C42.8025 80.9631 42.8174 80.9731 42.834 80.9813C42.8505 80.9912 42.8654 81.0012 42.8819 81.0094C42.8985 81.0194 42.9133 81.0293 42.9299 81.0375C42.9464 81.0475 42.9613 81.0574 42.9778 81.0657C42.9944 81.0756 43.0093 81.0855 43.0258 81.0938C43.0423 81.1037 43.0572 81.1136 43.0738 81.1219C43.0903 81.1318 43.1052 81.1417 43.1217 81.15C43.1382 81.1599 43.1531 81.1699 43.1697 81.1781C43.1862 81.188 43.2011 81.198 43.2176 81.2062C43.2342 81.2162 43.249 81.2261 43.2656 81.2343C43.2821 81.2443 43.297 81.2542 43.3135 81.2625C43.3301 81.2724 43.345 81.2823 43.3615 81.2906C43.378 81.3005 43.3929 81.3104 43.4095 81.3187C43.426 81.3286 43.4409 81.3385 43.4574 81.3468C43.474 81.3567 43.4888 81.3666 43.5054 81.3749C43.5219 81.3848 43.5368 81.3948 43.5533 81.403C43.5699 81.4129 43.5848 81.4229 43.6013 81.4311C43.6178 81.4411 43.6327 81.451 43.6492 81.4593C43.6658 81.4692 43.6807 81.4791 43.6972 81.4874C43.7137 81.4973 43.7286 81.5072 43.7452 81.5155C43.7617 81.5254 43.7766 81.5353 43.7931 81.5436C43.8097 81.5535 43.8245 81.5634 43.8411 81.5717C43.8576 81.5816 43.8725 81.5916 43.889 81.5998C43.9056 81.6097 43.9205 81.6197 43.937 81.6279C43.9535 81.6379 43.9684 81.6478 43.985 81.6561C44.0015 81.666 44.0164 81.6759 44.0329 81.6842C44.0495 81.6941 44.0643 81.704 44.0809 81.7123C44.0974 81.7222 44.1123 81.7321 44.1288 81.7404C44.1454 81.7503 44.1603 81.7602 44.1768 81.7685C44.1933 81.7784 44.2082 81.7883 44.2248 81.7966C44.2413 81.8065 44.2562 81.8165 44.2727 81.8247C44.2892 81.8346 44.3041 81.8446 44.3207 81.8528C44.3372 81.8628 44.3521 81.8727 44.3686 81.881C44.3852 81.8909 44.4 81.9008 44.4166 81.9091C44.4331 81.919 44.448 81.9289 44.4645 81.9372C44.4811 81.9471 44.496 81.957 44.5125 81.9653C44.529 81.9752 44.5439 81.9851 44.5605 81.9934C44.577 82.0033 44.5919 82.0133 44.6084 82.0215C44.625 82.0314 44.6398 82.0414 44.6564 82.0496C44.6729 82.0596 44.6878 82.0695 44.7043 82.0778C44.7209 82.0877 44.7358 82.0976 44.7523 82.1059C44.7688 82.1158 44.7837 82.1257 44.8003 82.134C44.8168 82.1439 44.8317 82.1538 44.8482 82.1621C44.8647 82.172 44.8796 82.1819 44.8962 82.1902C44.9127 82.2001 44.9276 82.21 44.9441 82.2183C44.9607 82.2282 44.9755 82.2382 44.9921 82.2464C45.0086 82.2563 45.0235 82.2663 45.04 82.2745C45.0566 82.2845 45.0715 82.2944 45.088 82.3027C45.1045 82.3126 45.1194 82.3225 45.136 82.3308C45.1525 82.3407 45.1674 82.3506 45.1839 82.3589C45.2005 82.3688 45.2153 82.3787 45.2319 82.387C45.2484 82.3969 45.2633 82.4068 45.2798 82.4151C45.2964 82.425 45.3113 82.435 45.3278 82.4432C45.3443 82.4531 45.3592 82.4631 45.3757 82.4713C45.3923 82.4813 45.4072 82.4912 45.4237 82.4995C45.4402 82.5094 45.4551 82.5193 45.4717 82.5276C45.4882 82.5375 45.5031 82.5474 45.5196 82.5557C45.5362 82.5656 45.551 82.5755 45.5676 82.5838C45.5841 82.5937 45.599 82.6036 45.6155 82.6119C45.6321 82.6218 45.647 82.6317 45.6635 82.64C45.68 82.6499 45.6949 82.6599 45.7115 82.6681C45.728 82.6781 45.7429 82.688 45.7594 82.6962C45.776 82.7062 45.7908 82.7161 45.8074 82.7244C45.8239 82.7343 45.8388 82.7442 45.8553 82.7525C45.8719 82.7624 45.8868 82.7723 45.9033 82.7806C45.9198 82.7905 45.9347 82.8004 45.9512 82.8087C45.9678 82.8186 45.9827 82.8285 45.9992 82.8368C46.0157 82.8467 46.0306 82.8567 46.0472 82.8649C46.0637 82.8749 46.0786 82.8848 46.0951 82.893C46.1117 82.903 46.1265 82.9129 46.1431 82.9212C46.1596 82.9311 46.1745 82.941 46.191 82.9493C46.2076 82.9592 46.2225 82.9691 46.239 82.9774C46.3118 83.0204 46.3911 83.0535 46.4821 83.0601C46.8476 83.0915 47.2312 83.1064 47.6248 83.1064C48.3062 83.1064 49.014 83.0601 49.6953 82.9675C53.3699 82.4713 56.8279 80.849 59.1861 78.514C62.6986 74.9965 64.8667 65.3221 64.9857 52.6297C64.9857 51.6242 64.6699 49.7902 62.6672 48.2341C63.8298 47.0731 64.9758 45.4988 64.8749 43.8765C64.5723 36.2048 62.9153 29.9818 60.3305 26.8066C59.7467 26.0806 59.0224 25.4919 58.2054 25.0173C58.1922 25.009 58.1773 25.0024 58.1641 24.9941L58.174 24.9991ZM56.3929 39.6727C56.4855 41.166 54.9608 42.7784 54.0446 43.6069C53.9107 43.7276 53.8396 43.9046 53.8545 44.0848C53.8693 44.2651 53.9669 44.4288 54.119 44.5264C56.0903 45.7932 56.5037 47.3129 56.5021 48.3614C56.388 60.5676 54.2943 70.1742 51.0448 73.4287C49.9963 74.4673 48.7031 75.3487 47.266 76.0416C47.4264 69.0314 47.562 62.9292 47.562 55.0905C47.562 53.6815 48.3194 51.5878 49.9797 50.3227C50.1567 50.1888 50.241 49.9655 50.1964 49.7472C50.1617 49.5736 50.0476 49.4248 49.8904 49.3437C49.8805 49.3388 49.864 49.3288 49.8491 49.3222C49.8458 49.3222 49.8441 49.3173 49.8425 49.3156C49.8326 49.3106 49.816 49.3007 49.8011 49.2941C49.7978 49.2941 49.7962 49.2892 49.7945 49.2875C49.7846 49.2825 49.7681 49.2726 49.7532 49.266C49.7499 49.266 49.7482 49.261 49.7466 49.2594C49.7367 49.2544 49.7201 49.2445 49.7052 49.2379C49.7019 49.2379 49.7003 49.2329 49.6986 49.2313C49.6937 49.228 49.6821 49.2213 49.6738 49.218C49.6672 49.2131 49.6589 49.2081 49.6507 49.2032C49.0371 48.8178 47.5669 47.6751 47.5669 45.5749C47.5669 39.2659 47.4628 32.6427 47.2478 25.3431C49.0421 24.7924 51.1043 24.5443 53.0706 24.6981C54.9492 27.9593 56.1432 33.2711 56.3962 39.6743L56.3929 39.6727Z" fill="#666666"/>
<path d="M82.9998 46.0271C82.9667 45.8534 82.8559 45.7112 82.7054 45.6285C82.6906 45.6186 82.674 45.6087 82.6575 45.6004C82.6426 45.5905 82.6261 45.5806 82.6095 45.5723C82.5946 45.5624 82.5781 45.5524 82.5616 45.5442C82.5467 45.5342 82.5302 45.5243 82.5136 45.5161C82.4987 45.5061 82.4822 45.4962 82.4656 45.4879C82.4508 45.478 82.4342 45.4681 82.4177 45.4598C82.4028 45.4499 82.3863 45.44 82.3697 45.4317C82.3548 45.4218 82.3383 45.4119 82.3218 45.4036C82.3069 45.3937 82.2904 45.3838 82.2738 45.3755C82.2589 45.3656 82.2424 45.3556 82.2259 45.3474C82.211 45.3375 82.1944 45.3275 82.1779 45.3193C82.163 45.3093 82.1465 45.2994 82.1299 45.2911C82.1151 45.2812 82.0985 45.2713 82.082 45.263C82.0671 45.2531 82.0506 45.2432 82.034 45.2349C82.0191 45.225 82.0026 45.2151 81.9861 45.2068C81.9712 45.1969 81.9546 45.187 81.9381 45.1787C81.9232 45.1688 81.9067 45.1588 81.8902 45.1506C81.8753 45.1407 81.8587 45.1307 81.8422 45.1225C81.8273 45.1125 81.8108 45.1026 81.7942 45.0944C81.7793 45.0844 81.7628 45.0745 81.7463 45.0662C81.7314 45.0563 81.7149 45.0464 81.6983 45.0381C81.6834 45.0282 81.6669 45.0183 81.6504 45.01C81.6355 45.0001 81.6189 44.9902 81.6024 44.9819C81.5875 44.972 81.571 44.9621 81.5544 44.9538C81.5396 44.9439 81.523 44.9339 81.5065 44.9257C81.4916 44.9157 81.4751 44.9058 81.4585 44.8976C81.4436 44.8876 81.4271 44.8777 81.4106 44.8694C81.3957 44.8595 81.3791 44.8496 81.3626 44.8413C81.3543 44.8364 81.3461 44.8298 81.3378 44.8231C80.6747 44.1253 80.0843 42.8271 79.8164 40.3101C78.5926 29.2979 74.9362 20.6836 69.2457 15.4015C68.0153 14.2489 66.6378 13.2566 65.156 12.4298C65.1477 12.4248 65.1395 12.4215 65.1312 12.4166C65.1147 12.4066 65.0998 12.3984 65.0832 12.3884C65.0667 12.3785 65.0502 12.3686 65.0336 12.3603C65.0171 12.3504 65.0022 12.3421 64.9857 12.3322C64.9691 12.3223 64.9526 12.3124 64.9361 12.3041C64.9195 12.2942 64.9046 12.2859 64.8881 12.276C64.8716 12.2661 64.855 12.2561 64.8385 12.2479C64.822 12.238 64.8071 12.2297 64.7905 12.2198C64.774 12.2098 64.7575 12.1999 64.7409 12.1916C64.7244 12.1817 64.7095 12.1735 64.693 12.1635C64.6764 12.1536 64.6599 12.1437 64.6434 12.1354C64.6268 12.1255 64.6103 12.1156 64.5954 12.1073C64.5789 12.0974 64.564 12.0891 64.5474 12.0792C64.5309 12.0693 64.516 12.061 64.4995 12.0511C64.4829 12.0412 64.4664 12.0312 64.4499 12.023C64.4333 12.013 64.4184 12.0048 64.4019 11.9949C64.3854 11.9849 64.3688 11.975 64.3523 11.9667C64.3358 11.9568 64.3209 11.9485 64.3043 11.9386C64.2878 11.9287 64.2713 11.9188 64.2547 11.9105C64.2382 11.9006 64.2233 11.8923 64.2068 11.8824C64.1902 11.8725 64.1737 11.8626 64.1572 11.8543C64.1406 11.8444 64.1257 11.8361 64.1092 11.8262C64.0927 11.8162 64.0761 11.8063 64.0596 11.7981C64.043 11.7881 64.0282 11.7799 64.0116 11.7699C63.9951 11.76 63.9785 11.7501 63.962 11.7418C63.9455 11.7319 63.9306 11.7236 63.914 11.7137C63.8975 11.7038 63.881 11.6939 63.8644 11.6856C63.8479 11.6757 63.833 11.6658 63.8165 11.6575C63.7999 11.6476 63.7851 11.6393 63.7685 11.6294C63.752 11.6195 63.7354 11.6095 63.7189 11.6013C63.7024 11.5913 63.6875 11.5831 63.671 11.5731C63.6544 11.5632 63.6379 11.5533 63.6213 11.545C63.6048 11.5351 63.5899 11.5268 63.5734 11.5169C63.5568 11.507 63.5403 11.4971 63.5238 11.4888C63.5072 11.4789 63.4907 11.469 63.4758 11.4607C63.4593 11.4508 63.4444 11.4425 63.4279 11.4326C63.4113 11.4227 63.3964 11.4144 63.3799 11.4045C63.3634 11.3945 63.3468 11.3846 63.3303 11.3764C63.3137 11.3664 63.2989 11.3582 63.2823 11.3482C63.2658 11.3383 63.2492 11.3284 63.2327 11.3201C63.2162 11.3102 63.2013 11.3019 63.1848 11.292C63.1682 11.2821 63.1517 11.2722 63.1351 11.2639C63.1186 11.254 63.1037 11.2457 63.0872 11.2358C63.0706 11.2259 63.0541 11.2159 63.0376 11.2077C63.021 11.1978 63.0062 11.1895 62.9896 11.1796C62.9731 11.1696 62.9565 11.1597 62.94 11.1514C62.9235 11.1415 62.9086 11.1333 62.892 11.1233C62.8755 11.1134 62.859 11.1035 62.8424 11.0952C62.8259 11.0853 62.811 11.077 62.7945 11.0671C62.7779 11.0572 62.7614 11.0473 62.7449 11.039C62.7283 11.0291 62.7134 11.0208 62.6969 11.0109C62.6804 11.001 62.6638 10.991 62.6473 10.9828C62.6308 10.9728 62.6159 10.9646 62.5993 10.9547C62.5828 10.9447 62.5663 10.9348 62.5497 10.9265C62.5332 10.9166 62.5183 10.9083 62.5018 10.8984C62.4852 10.8885 62.4687 10.8786 62.4522 10.8703C62.4356 10.8604 62.4191 10.8505 62.4042 10.8422C62.3877 10.8323 62.3728 10.824 62.3562 10.8141C62.3397 10.8042 62.3248 10.7959 62.3083 10.786C62.2917 10.776 62.2752 10.7661 62.2587 10.7579C62.2421 10.7479 62.2272 10.7397 62.2107 10.7297C62.1942 10.7198 62.1776 10.7099 62.1611 10.7016C62.1446 10.6917 62.1297 10.6834 62.1131 10.6735C62.0966 10.6636 62.0801 10.6537 62.0635 10.6454C62.047 10.6355 62.0321 10.6272 62.0156 10.6173C61.999 10.6074 61.9825 10.5974 61.966 10.5892C61.9494 10.5793 61.9345 10.5693 61.918 10.5611C61.9015 10.5511 61.8866 10.5429 61.87 10.5329C61.8535 10.523 61.837 10.5131 61.8204 10.5048C61.8039 10.4949 61.789 10.4866 61.7725 10.4767C61.7559 10.4668 61.7394 10.4569 61.7229 10.4486C61.7063 10.4387 61.6914 10.4304 61.6749 10.4205C61.6584 10.4106 61.6418 10.4007 61.6253 10.3924C61.6088 10.3825 61.5939 10.3742 61.5773 10.3643C61.5608 10.3543 61.5443 10.3444 61.5277 10.3362C61.5112 10.3262 61.4963 10.318 61.4798 10.308C61.4632 10.2981 61.4467 10.2882 61.4301 10.2799C61.4136 10.27 61.3987 10.2617 61.3822 10.2518C61.3656 10.2419 61.3491 10.232 61.3326 10.2237C61.316 10.2138 61.2995 10.2039 61.2846 10.1956C61.2681 10.1857 61.2532 10.1774 61.2367 10.1675C61.2201 10.1575 61.2052 10.1493 61.1887 10.1394C61.1722 10.1294 61.1556 10.1195 61.1391 10.1112C61.1226 10.1013 61.1077 10.0931 61.0911 10.0831C61.0746 10.0732 61.0581 10.0633 61.0415 10.055C61.025 10.0451 61.0101 10.0368 60.9936 10.0269C60.977 10.017 60.9605 10.0071 60.9439 9.99879C60.9274 9.98887 60.9125 9.9806 60.896 9.97068C60.8794 9.96075 60.8629 9.95084 60.8464 9.94257C60.8298 9.93264 60.815 9.92437 60.7984 9.91445C60.7819 9.90453 60.7653 9.89461 60.7488 9.88634C60.7323 9.87642 60.7174 9.86815 60.7008 9.85822C60.6843 9.8483 60.6678 9.83838 60.6512 9.83011C60.6347 9.82019 60.6198 9.81192 60.6033 9.802C60.5867 9.79208 60.5702 9.78215 60.5537 9.77388C60.5371 9.76396 60.5222 9.75569 60.5057 9.74577C60.4892 9.73585 60.4726 9.72592 60.4561 9.71766C60.4396 9.70773 60.4247 9.69947 60.4081 9.68955C60.3916 9.67962 60.3751 9.6697 60.3585 9.66143C60.342 9.65151 60.3271 9.64324 60.3106 9.63332C60.294 9.6234 60.2775 9.61347 60.261 9.6052C60.2444 9.59528 60.2295 9.58701 60.213 9.57709C60.1965 9.56716 60.1799 9.55725 60.1634 9.54898C60.1468 9.53905 60.132 9.53078 60.1154 9.52086C60.0989 9.51094 60.0823 9.50102 60.0658 9.49275C60.0493 9.48283 60.0344 9.47456 60.0179 9.46463C60.0013 9.45471 59.9848 9.44479 59.9682 9.43652C59.9517 9.4266 59.9368 9.41668 59.9203 9.40841C59.9037 9.39849 59.8889 9.39021 59.8723 9.38029C59.8558 9.37037 59.8393 9.36045 59.8227 9.35218C59.8062 9.34226 59.7913 9.33399 59.7748 9.32407C59.7582 9.31414 59.7417 9.30422 59.7251 9.29596C59.7086 9.28603 59.6937 9.27776 59.6772 9.26784C59.6606 9.25792 59.6441 9.248 59.6276 9.23973C59.611 9.22981 59.5961 9.22154 59.5796 9.21161C59.5631 9.20169 59.5465 9.19177 59.53 9.1835C59.5135 9.17358 59.4986 9.16531 59.482 9.15539C59.4655 9.14546 59.449 9.13554 59.4324 9.12727C59.4159 9.11735 59.401 9.10908 59.3845 9.09916C59.3679 9.08924 59.3514 9.07931 59.3349 9.07104C59.3183 9.06112 59.3034 9.05286 59.2869 9.04293C59.2704 9.03301 59.2538 9.02309 59.2373 9.01482C59.2208 9.0049 59.2059 8.99663 59.1893 8.98671C59.1728 8.97679 59.1563 8.96686 59.1397 8.95859C59.1232 8.94867 59.1066 8.93875 59.0918 8.93048C59.0752 8.92056 59.0603 8.91229 59.0438 8.90237C59.0273 8.89244 59.0124 8.88417 58.9958 8.87425C58.9793 8.86433 58.9628 8.85441 58.9462 8.84614C58.9297 8.83622 58.9148 8.82795 58.8983 8.81802C58.8817 8.8081 58.8652 8.79818 58.8487 8.78991C58.8321 8.77999 58.8172 8.77172 58.8007 8.7618C58.7842 8.75187 58.7676 8.74196 58.7511 8.73369C58.7346 8.72376 58.7197 8.71549 58.7031 8.70557C58.6866 8.69565 58.6701 8.68572 58.6535 8.67746C58.637 8.66753 58.6221 8.65927 58.6056 8.64934C58.589 8.63942 58.5725 8.6295 58.5559 8.62123C58.5394 8.61131 58.5245 8.60304 58.508 8.59312C58.4915 8.5832 58.4749 8.57327 58.4584 8.565C58.4418 8.55508 58.427 8.54681 58.4104 8.53689C58.3939 8.52697 58.3773 8.51704 58.3608 8.50878C58.3443 8.49885 58.3294 8.49059 58.3129 8.48067C58.2963 8.47074 58.2798 8.46082 58.2632 8.45255C58.2517 8.44593 58.2417 8.43932 58.2302 8.43271C53.8891 5.87603 48.5806 4.79118 43.3184 5.49567C40.5187 5.86611 34.7769 6.946 31.0097 8.64934C30.1117 9.05616 29.2799 9.46629 28.4729 9.86319C25.7888 11.1829 23.4703 12.3239 20.7003 12.3521C20.4704 12.3537 20.2621 12.4926 20.1728 12.7043C20.0818 12.916 20.1248 13.1607 20.2836 13.3294C22.8799 16.0978 23.7564 20.29 24.0359 23.318C24.5155 28.7555 25.1009 36.7728 24.6378 43.6027C24.441 45.9113 22.3689 47.9685 22.2796 48.0545C22.2333 48.0992 22.1953 48.1521 22.1655 48.21C22.0547 48.4332 22.0977 48.7028 22.273 48.8798C22.2928 48.8996 22.316 48.9194 22.3375 48.936C22.4152 48.9972 24.5403 50.6641 24.6345 52.8619C25.0562 62.7546 24.8843 70.1187 23.9764 81.0002C23.6787 84.5558 22.9279 87.6813 20.2356 91.3807C20.0868 91.5858 20.0884 91.8653 20.2389 92.0687C20.2852 92.1315 20.3464 92.1778 20.4109 92.2159C20.4258 92.2275 20.444 92.2341 20.4589 92.244C20.4737 92.2556 20.4919 92.2622 20.5068 92.2721C20.5217 92.2837 20.5382 92.2903 20.5548 92.3002C20.5697 92.3118 20.5878 92.3184 20.6027 92.3283C20.6176 92.3399 20.6358 92.3465 20.6507 92.3564C20.6656 92.368 20.6821 92.3746 20.6986 92.3846C20.7135 92.3961 20.7301 92.4027 20.7466 92.4127C20.7615 92.4242 20.7797 92.4309 20.7946 92.4408C20.8094 92.4524 20.826 92.459 20.8425 92.4689C20.8574 92.4805 20.8756 92.4871 20.8905 92.497C20.9054 92.5086 20.9219 92.5152 20.9384 92.5251C20.9533 92.5367 20.9715 92.5433 20.9864 92.5532C21.0013 92.5648 21.0178 92.5714 21.0344 92.5813C21.0492 92.5929 21.0674 92.5995 21.0823 92.6095C21.0972 92.621 21.1137 92.6277 21.1303 92.6376C21.1452 92.6492 21.1633 92.6558 21.1782 92.6657C21.1931 92.6773 21.2097 92.6839 21.2262 92.6938C21.2411 92.7054 21.2593 92.712 21.2741 92.7219C21.289 92.7335 21.3056 92.7401 21.3221 92.75C21.337 92.7616 21.3552 92.7682 21.3701 92.7781C21.3849 92.7897 21.4015 92.7963 21.418 92.8063C21.4329 92.8178 21.4511 92.8244 21.466 92.8344C21.4809 92.8459 21.4974 92.8526 21.5139 92.8625C21.5288 92.8741 21.547 92.8807 21.5619 92.8906C21.5768 92.9022 21.5933 92.9088 21.6099 92.9187C21.6247 92.9303 21.6429 92.9369 21.6578 92.9468C21.6727 92.9584 21.6892 92.965 21.7058 92.9749C21.7207 92.9865 21.7388 92.9931 21.7537 93.0031C21.7686 93.0146 21.7852 93.0212 21.8017 93.0312C21.8166 93.0427 21.8348 93.0494 21.8496 93.0593C21.8645 93.0709 21.8811 93.0775 21.8976 93.0874C21.9125 93.099 21.9307 93.1056 21.9456 93.1155C21.9604 93.1271 21.977 93.1337 21.9935 93.1436C22.0084 93.1552 22.0266 93.1618 22.0415 93.1717C22.0564 93.1833 22.0729 93.1899 22.0894 93.1998C22.1043 93.2114 22.1225 93.218 22.1374 93.228C22.1523 93.2395 22.1688 93.2461 22.1854 93.2561C22.2002 93.2676 22.2184 93.2743 22.2333 93.2842C22.2482 93.2958 22.2647 93.3024 22.2813 93.3123C22.2962 93.3239 22.3143 93.3305 22.3292 93.3404C22.3441 93.352 22.3623 93.3586 22.3772 93.3685C22.3921 93.3801 22.4086 93.3867 22.4251 93.3966C22.44 93.4082 22.4582 93.4148 22.4731 93.4248C22.488 93.4363 22.5045 93.4429 22.5211 93.4529C22.5359 93.4644 22.5541 93.4711 22.569 93.481C22.5839 93.4926 22.6004 93.4992 22.617 93.5091C22.6319 93.5207 22.6501 93.5273 22.6649 93.5372C22.6798 93.5488 22.6964 93.5554 22.7129 93.5653C22.7278 93.5769 22.746 93.5835 22.7609 93.5934C22.7757 93.605 22.7923 93.6116 22.8088 93.6215C22.8237 93.6331 22.8419 93.6397 22.8568 93.6497C22.8717 93.6612 22.8882 93.6678 22.9047 93.6778C22.9196 93.6893 22.9378 93.696 22.9527 93.7059C22.9676 93.7175 22.9841 93.7241 23.0006 93.734C23.0155 93.7456 23.0337 93.7522 23.0486 93.7621C23.0635 93.7737 23.08 93.7803 23.0966 93.7902C23.1114 93.8018 23.1296 93.8084 23.1445 93.8183C23.1594 93.8299 23.1759 93.8365 23.1925 93.8465C23.2074 93.858 23.2256 93.8646 23.2404 93.8746C23.2553 93.8861 23.2719 93.8928 23.2884 93.9027C23.3033 93.9143 23.3215 93.9209 23.3364 93.9308C23.3512 93.9424 23.3678 93.949 23.3843 93.9589C23.3992 93.9705 23.4174 93.9771 23.4323 93.987C23.4472 93.9986 23.4637 94.0052 23.4802 94.0151C23.4951 94.0267 23.5133 94.0333 23.5282 94.0432C23.5431 94.0548 23.5596 94.0614 23.5761 94.0714C23.591 94.0829 23.6092 94.0896 23.6241 94.0995C23.639 94.1111 23.6555 94.1177 23.6721 94.1276C23.6869 94.1392 23.7051 94.1458 23.72 94.1557C23.7349 94.1673 23.7514 94.1739 23.768 94.1838C23.7829 94.1954 23.8011 94.202 23.8159 94.2119C23.8308 94.2235 23.8474 94.2301 23.8639 94.24C23.8788 94.2516 23.897 94.2582 23.9119 94.2682C23.9267 94.2797 23.9433 94.2864 23.9598 94.2963C23.9747 94.3079 23.9929 94.3145 24.0078 94.3244C24.0227 94.336 24.0392 94.3426 24.0557 94.3525C24.0706 94.3641 24.0888 94.3707 24.1037 94.3806C24.1186 94.3922 24.1351 94.3988 24.1516 94.4087C24.1665 94.4203 24.1847 94.4269 24.1996 94.4368C24.2145 94.4484 24.231 94.455 24.2476 94.465C24.2624 94.4765 24.2806 94.4831 24.2955 94.4931C24.3104 94.5046 24.3286 94.5113 24.3435 94.5212C24.3584 94.5328 24.3749 94.5394 24.3914 94.5493C24.4063 94.5609 24.4245 94.5675 24.4394 94.5774C24.4543 94.589 24.4708 94.5956 24.4874 94.6055C24.5022 94.6171 24.5204 94.6237 24.5353 94.6336C24.5502 94.6452 24.5667 94.6518 24.5833 94.6617C24.5982 94.6733 24.6163 94.6799 24.6312 94.6899C24.6461 94.7014 24.6627 94.7081 24.6792 94.718C24.6941 94.7296 24.7123 94.7362 24.7271 94.7461C24.742 94.7577 24.7586 94.7643 24.7751 94.7742C24.79 94.7858 24.8082 94.7924 24.8231 94.8023C24.8379 94.8139 24.8545 94.8205 24.871 94.8304C24.8859 94.842 24.9041 94.8486 24.919 94.8585C24.9339 94.8701 24.9504 94.8767 24.9669 94.8867C24.9818 94.8982 25 94.9048 25.0149 94.9148C25.0298 94.9263 25.0463 94.933 25.0629 94.9429C25.0777 94.9545 25.0959 94.9611 25.1108 94.971C25.1257 94.9826 25.1422 94.9892 25.1588 94.9991C25.1737 95.0107 25.1918 95.0173 25.2067 95.0272C25.2216 95.0388 25.2382 95.0454 25.2547 95.0553C25.2696 95.0669 25.2878 95.0735 25.3026 95.0834C25.3175 95.095 25.3341 95.1016 25.3506 95.1116C25.3655 95.1231 25.3837 95.1298 25.3986 95.1397C25.4134 95.1513 25.43 95.1579 25.4465 95.1678C25.4614 95.1794 25.4796 95.186 25.4945 95.1959C25.5094 95.2075 25.5259 95.2141 25.5424 95.224C25.5573 95.2356 25.5755 95.2422 25.5904 95.2521C25.6053 95.2637 25.6218 95.2703 25.6384 95.2802C25.6532 95.2918 25.6714 95.2984 25.6863 95.3084C25.7012 95.3199 25.7177 95.3265 25.7343 95.3365C25.7492 95.348 25.7673 95.3547 25.7822 95.3646C25.7971 95.3762 25.8136 95.3828 25.8302 95.3927C25.8451 95.4043 25.8633 95.4109 25.8781 95.4208C25.893 95.4324 25.9096 95.439 25.9261 95.4489C25.941 95.4605 25.9592 95.4671 25.9741 95.477C25.9889 95.4886 26.0055 95.4952 26.022 95.5052C26.0369 95.5167 26.0551 95.5233 26.07 95.5333C26.0849 95.5448 26.1031 95.5515 26.1179 95.5614C26.1328 95.573 26.1494 95.5796 26.1659 95.5895C26.1808 95.6011 26.199 95.6077 26.2139 95.6176C26.2287 95.6292 26.2453 95.6358 26.2618 95.6457C26.2767 95.6573 26.2949 95.6639 26.3098 95.6738C26.3247 95.6854 26.3412 95.692 26.3577 95.702C26.3726 95.7135 26.3908 95.7201 26.4057 95.7301C26.4206 95.7416 26.4371 95.7482 26.4536 95.7582C26.4685 95.7697 26.4867 95.7764 26.5016 95.7863C26.5165 95.7979 26.533 95.8045 26.5496 95.8144C26.5644 95.826 26.5826 95.8326 26.5975 95.8425C26.6124 95.8541 26.6289 95.8607 26.6455 95.8706C26.6604 95.8822 26.6786 95.8888 26.6934 95.8987C26.7083 95.9103 26.7249 95.9169 26.7414 95.9269C26.7563 95.9384 26.7745 95.945 26.7894 95.955C26.8042 95.9665 26.8208 95.9732 26.8373 95.9831C26.8522 95.9947 26.8704 96.0013 26.8853 96.0112C26.9002 96.0228 26.9167 96.0294 26.9332 96.0393C26.9481 96.0509 26.9663 96.0575 26.9812 96.0674C26.9961 96.079 27.0126 96.0856 27.0291 96.0955C27.044 96.1071 27.0622 96.1137 27.0771 96.1237C27.092 96.1352 27.1085 96.1418 27.1251 96.1518C27.1399 96.1633 27.1581 96.17 27.173 96.1799C27.1879 96.1914 27.2044 96.1981 27.221 96.208C27.2359 96.2196 27.2541 96.2262 27.2689 96.2361C27.2838 96.2477 27.3004 96.2543 27.3169 96.2642C27.3318 96.2758 27.35 96.2824 27.3649 96.2923C27.3797 96.3039 27.3963 96.3105 27.4128 96.3204C27.4277 96.332 27.4459 96.3386 27.4608 96.3486C27.4757 96.3601 27.4922 96.3667 27.5087 96.3767C27.5236 96.3882 27.5418 96.3949 27.5567 96.4048C27.5716 96.4164 27.5898 96.423 27.6046 96.4329C27.7568 96.5437 27.9552 96.5784 28.1388 96.5139C30.9568 95.5184 33.8574 95.8905 37.2178 96.3188C37.7602 96.3882 38.3142 96.4594 38.8831 96.5255C40.3384 96.6991 41.9376 96.7851 43.6244 96.7851C46.0124 96.7851 48.574 96.6132 51.1522 96.2708C59.2985 95.1827 66.9817 90.6895 71.1988 84.5525C75.7631 78.1327 79.0259 65.9678 79.9272 52.0053C80.033 50.0787 81.2452 47.7039 82.6873 46.6009C82.8609 46.467 82.9452 46.247 82.9039 46.032L82.9998 46.0271ZM61.106 11.9783C66.5915 17.0702 70.1222 25.4348 71.3145 36.1642C71.6502 39.3162 72.5019 41.1833 74.0333 42.0498C72.6673 43.477 71.6386 45.7294 71.5328 47.6626C70.6464 61.4134 67.463 73.3567 63.0128 79.6144C58.971 85.4968 51.5954 89.8014 43.7649 90.8482C39.4603 91.4204 35.2085 91.5097 31.7869 91.1013C31.6365 91.0831 31.4926 91.0649 31.3437 91.0467C32.0069 89.1647 32.3079 87.3142 32.4732 85.3396C33.3861 74.4035 33.5597 67.0014 33.1347 57.0542C33.0537 55.1937 31.7869 53.492 30.8658 52.6618C31.5951 51.8284 32.9578 50.0142 33.1347 47.9338C33.6044 41.0129 33.0157 32.9328 32.5311 27.4556C32.2649 24.5533 31.4661 20.6323 29.2336 17.6837C31.739 17.4042 33.8888 16.3475 36.3264 15.1469C37.1235 14.7549 37.9488 14.3481 38.8302 13.9496C42.4734 12.3024 48.0762 11.2523 50.8132 10.8902C54.286 10.4238 57.7754 10.781 60.9621 11.8477C61.0101 11.8923 61.063 11.9337 61.111 11.9783H61.106Z" fill="#666666"/>
<path d="M23.8707 81.0423C24.7505 70.5047 24.9721 63.1654 24.5305 52.8312C24.4214 50.301 22.0003 48.4637 22.0003 48.4653C22.0003 48.4653 24.3106 46.2245 24.5305 43.6463C24.9704 37.1604 24.4776 29.4837 23.9286 23.2607C23.5978 19.6606 22.5543 15.6255 20.0225 12.9266C23.7632 12.8902 26.601 10.9718 30.565 9.17257C34.1999 7.52876 39.8408 6.44557 42.7101 6.06521C49.325 5.17881 56.1731 7.22944 60.8118 11.5738C66.3353 16.7004 69.9868 25.184 71.2023 36.1235C71.6455 40.2843 72.9718 41.4766 74.4088 41.8884C72.7502 43.1585 71.533 45.7201 71.4222 47.7228C70.5375 61.4273 67.3325 73.5938 62.8013 79.9657C58.6024 86.0762 50.982 90.3991 43.1516 91.4459C39.1826 91.9734 34.7738 92.1471 31.0297 91.6989C26.8441 91.2044 23.4341 90.5132 20.0241 91.7154C22.6635 88.0888 23.5449 84.9682 23.874 81.0423H23.8707ZM41.6054 78.1499C44.9128 77.7034 48.3328 76.2679 50.7621 73.8617C54.2945 70.3244 56.2806 60.1324 56.3914 48.3859C56.3914 47.3921 56.0607 45.5465 53.7421 44.0565C54.736 43.1585 56.3914 41.4138 56.2823 39.6559C55.9515 31.2847 54.0745 25.6421 51.8651 22.9267C49.1067 19.5002 43.0375 19.1744 38.6286 20.6726C38.8486 28.0582 38.9594 34.903 38.9594 41.3228C38.9594 44.3095 41.6054 45.6093 41.6054 45.611C39.8408 46.9538 38.9594 49.1814 38.9594 50.8401C38.9594 60.9113 38.7378 67.9132 38.5195 78.2359C39.5084 78.3202 40.6131 78.2805 41.6054 78.1466V78.1499Z" fill="#4D748C"/>
<path d="M23.7764 80.983C24.6562 70.4454 24.8761 63.1078 24.4346 52.7719C24.3255 50.2417 21.906 48.4044 21.906 48.4061C21.906 48.4061 24.2163 46.1652 24.4346 43.5871C24.8761 37.1011 24.4346 28.978 23.8856 22.7533C23.5548 19.1531 22.6734 15.7448 20.1448 13.0459C23.8856 13.0095 26.8557 11.0068 30.8213 9.20758C34.4546 7.56376 39.7465 6.3863 42.6124 6.0076C49.2274 5.1212 56.0739 7.17183 60.7159 11.5145C66.2394 16.6411 69.8908 25.1248 71.1046 36.0642C71.5462 40.225 72.8741 41.4174 74.3112 41.8291C72.6525 43.0992 71.437 45.6609 71.3262 47.6619C70.4398 61.3664 67.2349 73.5329 62.7053 79.9047C58.5048 86.0153 50.8828 90.3381 43.0556 91.385C39.085 91.9125 34.6762 92.0862 30.9338 91.638C26.7482 91.1435 23.3365 90.4523 19.9265 91.6545C22.5659 88.0279 23.4473 84.9073 23.7781 80.9813L23.7764 80.983ZM48.4601 84.7055C50.8861 84.3963 54.3093 84.1978 56.7386 83.5793C56.7386 83.5066 56.7386 83.4322 56.7386 83.3594C54.3093 83.2023 50.9969 83.8291 48.4601 84.1532C45.0319 84.517 25.1986 87.3399 24.1055 87.7964C24.0691 87.8394 24.0327 87.8807 23.9964 87.9237C23.9964 88.0328 24.8761 87.8989 24.9853 87.8807C32.8008 86.6867 40.6247 85.7027 48.4601 84.7055ZM24.2163 16.064C25.0961 16.0392 25.9775 16.2359 26.9681 16.1979C27.0789 16.1814 27.1881 16.1648 27.2989 16.1483C31.372 15.758 35.4468 15.3942 39.5266 14.8352C45.48 14.0216 51.106 12.9731 57.0711 11.6055V11.3839C50.8844 11.2284 44.7061 11.9065 38.4235 12.773C33.4623 13.4593 29.0584 14.435 24.2163 15.8424V16.064ZM42.9449 82.5474C48.3493 81.8247 54.7492 81.4741 60.0527 80.3165V80.0949C54.9708 80.0089 48.1277 81.408 42.9449 82.1042C40.7338 82.3556 25.5343 84.4393 24.8761 84.7998C24.8398 84.8428 24.8034 84.8841 24.7653 84.9271C24.7653 85.0379 25.316 85.0644 25.4268 85.0479C31.2596 84.1598 37.0989 83.3263 42.9449 82.5474ZM32.2535 18.7381C34.1271 18.576 36.3299 17.7111 38.3144 17.4382C40.5552 17.129 42.7977 16.8263 45.0418 16.5336C47.7969 16.1715 51.2185 16.4046 53.8694 15.7514C55.9664 15.166 57.9525 14.488 60.0527 14.1374V13.9158C57.4018 13.9984 54.8617 13.6363 52.214 13.9621C49.8955 14.2482 47.4662 14.7757 45.0418 15.0932C42.7993 15.3876 40.5569 15.6886 38.3144 15.9978C36.3316 16.2723 34.2379 16.1252 32.2535 16.4129C30.9321 17.0463 29.6091 16.7982 28.3986 17.2017C27.2989 17.5871 26.0883 18.2122 24.9869 18.6024C24.9869 18.6388 24.9869 18.6752 24.9869 18.7132C24.9869 18.824 25.9775 18.8935 26.1975 18.8604C26.4174 18.9382 28.0695 19.2424 28.4002 19.1945C29.1725 19.0787 31.5936 18.6124 32.2551 18.7381H32.2535ZM29.9399 47.4072C32.8058 46.9855 35.3377 46.4034 38.0944 45.689C38.0944 45.6146 38.0944 45.5418 38.0944 45.4674C35.3377 45.5186 32.6933 45.6741 29.9399 46.0792C28.1786 46.3389 26.7465 46.8846 24.9869 47.3758C24.9869 47.4122 24.9869 47.4502 24.9869 47.4866C24.9869 47.5974 25.9775 47.5577 26.0883 47.5411C26.859 47.6453 27.5205 47.6569 28.2895 47.5411C28.8401 47.4948 29.3908 47.4502 29.9415 47.4055L29.9399 47.4072ZM61.0483 77.4357C61.379 77.3977 61.8206 77.2373 62.1513 77.2009V76.9793C61.1558 76.8635 54.86 77.7069 53.3154 77.9037C44.2993 79.0035 35.2947 80.2322 26.305 81.5932C25.9759 81.6428 25.536 81.8214 25.2052 81.871C25.1689 81.914 25.1325 81.9554 25.0944 81.9984C25.1308 81.9934 25.1672 81.9868 25.2052 81.9818C25.536 82.043 25.9759 82.086 26.305 82.0364C37.8629 80.2868 49.4457 78.7537 61.0466 77.4357H61.0483ZM32.5842 21.346C32.7678 21.3939 32.9513 21.4403 33.1349 21.4882C34.3471 21.093 35.89 20.5423 36.9897 19.9453C37.0261 19.9039 37.0642 19.8609 37.1006 19.8196V19.7088C35.7792 19.5616 34.4579 19.3053 33.1349 19.2739C32.9513 19.3747 32.7678 19.474 32.5842 19.5748C29.8291 19.7518 27.957 20.4728 25.316 21.4287C25.316 21.4651 25.316 21.5031 25.316 21.5395C25.316 21.6503 25.7576 21.6933 25.8651 21.6767C26.7449 21.7644 27.8462 22.0422 28.6169 21.9281C29.9382 21.7313 31.2596 21.647 32.5825 21.346H32.5842ZM28.1786 78.8778C29.3908 78.6876 36.4391 77.6739 36.8806 77.5085C36.8806 77.4341 36.8806 77.3613 36.8806 77.2869C36.4391 77.2307 29.3892 78.246 28.1786 78.4346C27.6296 78.5156 25.9759 78.7653 25.4285 78.9588V79.0696C25.4285 79.1804 25.9775 79.2069 25.9775 79.2085C26.7118 79.0977 27.4444 78.9869 28.1786 78.8778ZM26.0867 24.5212C27.8479 24.6965 29.3892 24.9098 31.1504 24.6535C32.6933 24.4286 34.1255 24.1127 35.5576 23.4677C35.9992 23.1833 36.6607 22.9799 37.1006 22.8079V22.5863C35.1161 22.3101 33.3532 22.1199 31.2612 22.4242C29.1692 22.7302 27.5172 23.6397 25.536 24.2731C25.536 24.3095 25.536 24.3475 25.536 24.3839C25.536 24.4947 25.9759 24.4286 26.085 24.5228L26.0867 24.5212ZM34.567 75.0676C35.1161 74.9898 35.7776 74.8956 36.3299 74.8179C36.5135 74.7186 36.6954 74.6194 36.879 74.5202C36.879 74.1878 35.0053 74.5615 34.567 74.6244C33.2821 74.8079 31.9955 74.9932 30.7105 75.1817C29.6091 75.3404 26.4141 75.7076 25.6468 76.0482V76.159C25.6468 76.2698 26.1942 76.2963 26.1958 76.2963C28.9857 75.8746 31.7755 75.4645 34.567 75.0659V75.0676ZM35.4485 26.3585C36.0008 26.1699 36.6623 25.9665 37.1006 25.6837V25.4621C33.9055 25.0239 32.0318 25.7383 29.0601 25.735C28.0678 26.1038 26.7482 26.5238 25.7576 27.1159C25.7576 27.1903 25.7576 27.2631 25.7576 27.3375C26.8573 27.4648 27.9587 27.5955 29.0601 27.7278C31.2612 27.0696 33.2424 27.1142 35.4485 26.3585ZM25.8667 44.5859C26.5266 44.5958 27.408 44.9068 28.0678 44.8092C30.3814 44.5727 32.8041 44.1113 35.1161 43.7822C35.5576 43.7194 36.8789 43.091 37.3205 42.919V42.699C36.7681 42.6643 35.6668 42.3765 35.1161 42.4543C32.8041 42.7817 30.3798 43.0231 28.0678 43.4812C27.5188 43.5639 26.8573 43.9955 26.4174 44.1725C26.1975 44.2783 25.9775 44.3858 25.7592 44.4933C25.7956 44.5247 25.832 44.5562 25.8684 44.5876L25.8667 44.5859ZM25.7576 50.3575C26.1958 50.4021 26.9681 50.5046 27.408 50.5493C27.7371 50.4997 28.177 50.4335 28.5077 50.3856C28.8749 50.331 29.242 50.2764 29.6091 50.2219C32.2518 49.8316 34.787 49.5786 37.4313 48.6574V48.4358C34.787 48.2506 31.921 48.7732 29.0601 49.1982C27.8479 49.3785 26.9665 49.7307 25.7576 50.1359C25.7576 50.2103 25.7576 50.283 25.7576 50.3575ZM30.9321 72.716C32.1427 72.5357 36.2191 72.0644 37.1006 71.6129V71.5021C36.2208 71.3996 32.0319 72.109 30.9321 72.2728C29.6108 72.4662 28.2894 72.663 26.9681 72.8615C26.8573 72.878 25.7576 73.1558 25.7576 73.2666C25.7576 73.3774 26.3066 73.4056 26.4158 73.389C27.9207 73.1608 29.4256 72.9376 30.9321 72.7176V72.716ZM32.5842 29.9785C32.7678 30.0628 32.9513 30.1455 33.1349 30.2299C34.0163 29.9917 35.1161 29.5039 35.9992 29.0474C36.3663 28.8854 36.7334 28.7233 37.1006 28.5612V28.3396C35.7792 28.1908 34.4579 27.7145 33.1349 27.7939C32.9513 27.9312 32.7678 28.0684 32.5842 28.2057C30.049 28.462 28.2878 29.1648 25.8667 29.9752V30.1968C26.7465 30.2828 27.7388 30.4663 28.6185 30.5573C28.9493 30.5077 29.5 30.4266 29.8291 30.3787C30.7469 30.2431 31.6647 30.1091 32.5842 29.9768V29.9785ZM35.1161 40.9047C35.8503 40.6153 36.5862 40.3276 37.3205 40.0415V39.8215C34.6762 39.4164 32.0319 39.9059 29.1692 40.3292C28.3986 40.4433 27.8462 40.746 27.0773 40.9725C26.7465 41.1329 26.305 41.3099 25.9759 41.4719C25.9395 41.5149 25.9031 41.5563 25.8651 41.5993C25.8651 41.9284 28.7277 41.9416 29.1692 41.8788C31.0413 41.6009 33.5731 41.5662 35.1161 40.9064V40.9047ZM34.4579 32.5864C34.6778 32.555 36.8806 31.5793 37.2113 31.4239C37.2477 31.3825 37.2858 31.3395 37.3222 31.2982V31.1874C34.3471 30.7177 31.8119 31.1923 28.8401 31.6339C28.7293 31.6488 26.3066 32.6774 25.9775 32.8378C25.9775 32.9122 25.9775 32.985 25.9775 33.0594C26.5266 33.0859 28.5094 33.453 28.8401 33.4034C30.7122 33.1255 32.5842 32.8527 34.4579 32.5864ZM29.9399 38.8855C31.7011 38.6259 33.3532 38.2769 35.0069 38.0421C35.1177 38.0256 37.2114 37.1788 37.3222 37.164V36.9424C34.6778 36.5372 32.2535 36.9953 29.3908 37.4186C28.4002 37.5658 26.9698 37.9991 26.0883 38.5763C26.0519 38.6193 26.0156 38.6606 25.9775 38.7036C25.9775 38.8144 27.9571 39.0674 28.2895 39.0195C28.8401 38.9748 29.3908 38.9302 29.9415 38.8855H29.9399ZM27.628 53.2846C28.5077 53.2631 29.3892 53.1324 30.2706 53.0034C32.0699 52.7025 33.8692 52.4064 35.6684 52.1154C36.11 52.0525 36.9914 51.7086 37.3205 51.5531V51.3315C35.1161 50.9743 32.6933 51.5415 30.269 51.8971C29.3875 52.0261 28.5077 52.1567 27.6263 52.289C27.2972 52.4494 26.3033 52.8199 25.9759 52.9819C25.9759 53.0183 25.9759 53.0564 25.9759 53.0927C25.9759 53.2035 27.408 53.3176 27.6263 53.2862L27.628 53.2846ZM30.2706 56.1025C30.4542 55.9653 30.6378 55.8264 30.823 55.6891C32.1443 55.7172 33.7947 55.2575 35.1177 55.0706C35.3377 55.0392 37.3222 54.5381 37.3222 54.3182V54.2074C35.6701 53.9957 34.2363 54.3099 32.4751 54.5646C31.9244 54.6439 31.3737 54.725 30.823 54.8044C30.6394 54.72 30.4558 54.6373 30.2706 54.553C29.9399 54.6009 29.6091 54.6506 29.28 54.6985C28.9129 54.7895 28.5441 54.8821 28.177 54.973C27.7371 55.2608 26.6357 55.6478 25.9759 55.8578C25.9759 55.9322 25.9759 56.005 25.9759 56.0794C26.6357 56.0893 27.628 56.0513 28.177 56.3026C28.5441 56.2844 28.9129 56.2663 29.28 56.2497C29.6108 56.2001 29.9382 56.0414 30.2706 56.1042V56.1025ZM27.1881 59.1057C28.5077 59.0164 30.4906 58.2805 31.7011 58.5468C33.1332 58.0076 34.8978 58.3086 36.11 57.8075C36.5135 57.6405 36.917 57.4718 37.3222 57.3048V57.0832C35.4468 56.7905 33.464 57.7381 31.7028 57.4421C30.4906 58.0589 28.5094 57.9101 27.1897 58.221C26.859 58.3814 26.4191 58.5583 26.0883 58.7187C26.0519 58.7617 26.0156 58.8031 25.9775 58.8461C25.9775 58.9569 26.9681 59.028 27.1881 59.1057ZM27.7388 64.8888C28.1786 64.9335 28.5094 64.7731 28.8401 64.7251C29.0237 64.735 29.2073 64.745 29.3908 64.7549C29.5744 64.6176 29.758 64.4787 29.9415 64.3414C31.8136 64.0653 33.6872 63.7957 35.5593 63.5311C35.7809 63.4997 37.3222 63.1723 37.3222 62.9523C37.2858 62.9209 37.2477 62.8895 37.2113 62.8564C36.2208 62.6596 32.4734 63.3045 31.0429 63.5162C30.6758 63.5708 30.307 63.6237 29.9399 63.6783C29.7563 63.594 29.5727 63.5113 29.3892 63.4269C29.0601 63.5873 28.7293 63.5245 28.2878 63.5906C28.1042 63.6551 27.9207 63.7196 27.7371 63.7841C27.5535 63.9231 27.37 64.0603 27.1864 64.1992C26.9665 64.2323 25.9759 64.3828 25.9759 64.6044C25.9759 64.8243 26.9665 64.6755 27.1864 64.6424C27.37 64.7251 27.5535 64.8094 27.7371 64.8921L27.7388 64.8888ZM26.5266 70.4933C27.2989 70.4867 28.6185 70.2899 29.3892 70.1758C31.4812 69.8285 33.5748 69.4895 35.6684 69.1571C35.7792 69.1406 37.2113 68.9405 37.2113 68.7189C37.175 68.6875 37.1386 68.656 37.1006 68.623C36.6607 68.4559 30.3798 69.3556 29.3892 69.5094C28.7293 69.6069 26.5266 69.936 25.9759 70.242C25.9759 70.2784 25.9759 70.3164 25.9759 70.3528C25.9759 70.4636 26.5266 70.4917 26.5266 70.4917V70.4933ZM29.9399 36.008C30.1234 36.1287 30.307 36.2495 30.4906 36.3702C31.0413 36.0675 32.0319 36.0345 32.6933 35.9385C33.3515 35.8426 33.7947 35.8906 34.3454 35.3697C35.0053 35.3862 35.9992 34.8041 36.659 34.4899C36.8426 34.3907 37.0261 34.2914 37.2097 34.1906V34.0797C36.659 34.045 35.2252 33.6944 34.8961 33.7424C34.7126 33.7688 34.529 33.7953 34.3454 33.8201C34.1255 33.6299 33.6823 33.4712 33.2424 33.534C32.4734 33.6448 31.2596 34.0417 30.4906 33.9342C30.307 34.1095 30.1234 34.2832 29.9399 34.4585C28.5094 34.6701 27.5188 35.0389 26.0867 35.6988V35.9204C27.1881 36.0857 28.177 36.2693 29.3892 36.089C29.5727 36.0626 29.7563 36.0345 29.9399 36.008ZM28.2878 61.707C28.7293 61.6409 29.0601 61.5929 29.3892 61.5433C29.6091 61.6574 29.8291 61.7732 30.049 61.8873C30.2326 61.7864 30.4162 61.6855 30.6014 61.5847C31.1521 61.7252 32.1427 61.4706 32.8041 61.3746C32.9877 61.2374 33.1696 61.1018 33.3532 60.9645C34.271 60.8322 35.1905 60.7016 36.11 60.5726C36.3299 60.5412 37.1005 60.2121 37.2113 60.1972C37.2477 60.1558 37.2858 60.1128 37.3222 60.0715V59.9607C36.3316 59.7656 35.4485 60.002 34.5687 60.1261C34.1635 60.1839 33.76 60.2418 33.3548 60.2997C33.1713 60.2154 32.9894 60.131 32.8058 60.0483C32.1443 60.1443 31.1521 60.1773 30.603 60.3692C30.4195 60.3593 30.2359 60.3493 30.0507 60.3394C29.8307 60.5197 29.6108 60.6983 29.3908 60.8785C28.8401 60.9596 28.2894 61.0422 27.7388 61.1249C27.1881 61.2076 26.6374 61.2903 26.0883 61.5962V61.707C26.859 61.922 27.5205 61.8228 28.2895 61.707H28.2878ZM35.6684 66.3904C35.8884 66.359 37.2113 66.063 37.2113 65.8414V65.7322C36.2191 65.5354 32.3626 66.1953 31.0429 66.3921C30.1598 66.5194 27.5188 66.8022 26.6374 67.1578C26.4538 67.2586 26.2702 67.3595 26.0867 67.462C26.0867 67.6836 27.408 67.5943 27.628 67.5629C30.307 67.1611 32.9877 66.7708 35.6684 66.3921V66.3904ZM41.8418 11.4236C45.48 10.9291 51.1077 9.99806 52.7631 9.24561C52.7995 9.20427 52.8375 9.16292 52.8739 9.12158V9.01078C48.3493 9.01409 45.0401 9.22081 41.0695 9.75662C36.7682 10.3321 30.4906 11.794 28.0678 12.7135C28.0315 12.7565 27.9951 12.7978 27.957 12.8408C28.9493 12.9136 29.7183 12.6887 30.6014 12.6705C33.3548 12.4886 35.1161 12.348 37.762 11.9809C39.1214 11.7924 40.4808 11.6071 41.8402 11.4236H41.8418ZM31.592 89.7726C32.4751 89.6436 33.464 89.723 34.3471 89.4865C37.8728 88.6497 42.5016 88.5736 45.7016 88.0494C45.9232 88.0196 48.1293 87.6244 48.2401 87.6111C49.3431 87.4706 50.4462 87.2209 51.5509 87.0836C51.5873 87.0423 51.6253 87.0009 51.6617 86.9596V86.8504C50.557 86.9877 49.3431 86.9182 48.2401 87.0588C48.1293 87.0737 47.9094 87.2126 47.6878 87.3515C46.9138 87.1927 32.1393 89.3228 30.4922 89.7147C30.4558 89.756 30.4195 89.799 30.3814 89.8404C30.3814 89.9512 31.3737 89.8057 31.592 89.7742V89.7726ZM43.0556 8.38402C44.1587 8.08965 45.2617 7.79694 46.3648 7.50754C45.1509 7.47942 43.9371 7.45462 42.7249 7.43312C41.0712 7.76386 39.4174 8.09957 37.7637 8.44024C36.8078 8.71972 35.8536 9.00251 34.8978 9.2853C34.8978 9.38618 42.9448 8.38898 43.0556 8.38567V8.38402ZM41.5111 78.0906C44.8185 77.6441 48.2385 76.2086 50.6661 73.8025C54.1985 70.2651 56.1846 60.0732 56.2954 48.3267C56.2954 47.3328 55.9647 45.4872 53.6462 43.9972C54.6384 43.1009 56.2938 41.3545 56.1847 39.5966C55.8556 31.2254 53.9769 25.5812 51.7692 22.8674C49.0091 19.4409 42.9415 19.1151 38.531 20.6134C38.7526 27.999 38.8618 34.8438 38.8618 41.2636C38.8618 44.2519 41.5094 45.5501 41.5094 45.5517C39.7449 46.8945 38.8618 49.1221 38.8618 50.7808C38.8618 60.8521 38.6402 67.854 38.4219 78.1766C39.4158 78.2609 40.5155 78.2212 41.5094 78.0873L41.5111 78.0906ZM62.2621 16.7618V16.5402C60.3835 16.4195 58.2849 16.107 56.4062 16.3302C53.5354 16.6709 50.5553 17.812 47.6861 18.2899V18.4007C48.4601 18.4123 49.2307 18.4255 50.0046 18.3279C52.1016 18.1758 54.3093 18.5694 56.4062 18.3213C58.2832 18.0981 60.3835 17.3043 62.2621 16.7602V16.7618ZM62.2621 74.421C62.8145 74.3581 63.256 74.1994 63.9192 74.1249V73.9033C63.3652 73.9645 62.8145 73.9166 62.2621 73.9778C58.8372 74.3631 56.5171 74.4143 53.0955 74.9419C52.5067 75.1238 51.918 75.3074 51.3293 75.4909C51.8436 75.4645 52.3596 75.438 52.8739 75.4115C56.1863 75.4512 58.8372 74.8063 62.2621 74.421ZM53.7586 20.744C55.3032 20.7788 56.9603 21.1343 58.6173 20.9408C60.3851 20.7358 62.2621 19.8593 64.0316 19.4425C64.0316 19.3681 64.0316 19.2954 64.0316 19.2209C62.2638 19.1945 60.3851 18.743 58.6173 18.9481C56.7403 19.1664 54.5293 19.9833 52.6539 20.5456C52.6175 20.5869 52.5812 20.6283 52.5448 20.6696C52.5448 20.7804 53.5387 20.7688 53.7603 20.7424L53.7586 20.744ZM63.9192 71.3582C64.2499 71.3219 64.6931 71.1631 65.0239 71.1267C65.0239 71.0523 65.0239 70.9795 65.0239 70.9051C63.8084 70.8158 62.3729 70.9762 61.1574 71.1135C59.1696 71.3367 55.6356 71.6427 53.9802 72.1768C53.9802 72.2132 53.9802 72.2513 53.9802 72.2876C53.9802 72.5076 55.0833 72.3753 55.3049 72.3488C58.1757 72.0049 61.0483 71.6741 63.9208 71.3566L63.9192 71.3582ZM65.4671 22.1646C65.5034 22.1232 65.5415 22.0819 65.5779 22.0422V21.9314C63.4776 21.8272 61.4882 21.4981 59.5004 21.7263C57.8433 21.9165 56.0772 22.7897 54.5293 23.1982V23.4198C55.9647 23.5769 57.9525 23.8977 59.5004 23.7191C61.4865 23.4909 63.4776 22.7136 65.4671 22.1662V22.1646ZM55.1924 69.3771C56.0755 69.4912 57.0711 69.043 57.9525 69.2712C58.394 69.1075 62.3729 68.6527 62.8145 68.8264C63.476 68.6412 64.2499 68.446 64.9131 68.3749C65.2438 68.3385 65.7978 68.279 66.0178 68.1434C66.0541 68.102 66.0922 68.0607 66.1286 68.021C66.1286 67.9846 66.1286 67.9466 66.1286 67.9102C65.1314 67.7961 63.8067 67.9416 62.8128 67.9416C62.3696 68.2095 58.3924 68.6643 57.9508 68.6081C57.1785 68.9206 56.5154 68.7768 55.7448 68.9802C55.5595 69.0761 55.376 69.172 55.1924 69.2679C55.1924 69.3043 55.1924 69.3423 55.1924 69.3787V69.3771ZM59.9419 26.3221C60.2743 26.504 60.7159 26.5652 61.0483 26.5271C61.2318 26.3965 61.4154 26.2642 61.599 26.1336C62.7053 26.2278 65.3563 25.3828 66.5734 24.9214V24.6998C66.1319 24.6353 62.9269 24.3227 62.707 24.3492C62.3746 24.3856 61.9314 24.4352 61.6006 24.5824C61.4171 24.493 61.2335 24.4037 61.0499 24.3128C60.7175 24.3508 60.2743 24.5112 59.9436 24.7709C58.6189 24.7031 56.9619 25.4489 55.6373 25.9401C55.6009 25.9814 55.5629 26.0228 55.5265 26.0641C55.5265 26.1749 56.0788 26.2179 56.188 26.2063C57.1835 26.3088 58.3974 26.5007 59.3912 26.3849C59.5748 26.3634 59.7584 26.3419 59.9436 26.3221H59.9419ZM62.5945 65.8629C63.476 65.5421 64.8039 65.5073 65.7995 65.3998C66.1319 65.3634 66.6842 65.3039 66.9042 65.17C66.9405 65.1286 66.9786 65.0889 67.015 65.0476C67.015 65.0112 67.015 64.9732 67.015 64.9368C65.5795 64.649 63.9208 65.3833 62.5962 65.1997C60.7175 65.6314 58.5065 65.5536 55.968 66.187C55.9316 66.2284 55.8936 66.2697 55.8572 66.311C55.8936 66.3061 55.9316 66.3028 55.968 66.2978C58.0649 66.8237 60.0544 65.929 62.5962 65.8645L62.5945 65.8629ZM56.4062 28.9482C57.1802 29.0044 57.9525 29.0607 58.7264 29.1202C60.0511 29.4079 61.1558 29.5039 62.5929 29.3434C62.7764 29.2128 62.96 29.0805 63.1452 28.9499C64.6915 28.7779 66.1302 28.0684 67.5657 27.6947C67.602 27.6533 67.6401 27.6136 67.6765 27.5723C67.6765 27.5359 67.6765 27.4979 67.6765 27.4615C66.2394 27.3937 64.9131 26.9836 63.476 27.144C63.3652 27.1556 63.256 27.1688 63.1452 27.1804C62.9617 27.0911 62.7781 27.0001 62.5929 26.9108C62.0405 26.972 61.4882 27.0348 60.9358 27.0977C59.9403 27.2101 57.5109 28.3777 56.4062 28.7299V28.9515V28.9482ZM58.2849 63.4782C58.6173 63.551 59.0588 63.6105 59.3896 63.5725C59.5732 63.4402 59.7567 63.3079 59.9419 63.1772C60.4959 63.1144 61.0483 63.0515 61.599 63.0995C61.7098 63.0863 61.9314 62.9507 62.153 62.9259C63.81 62.739 65.9103 62.8415 67.569 62.223V62.0031C65.6903 61.76 63.5884 62.5422 61.6006 62.4363C61.0499 62.61 60.4976 62.6728 59.9436 62.7357C59.76 62.6464 59.5765 62.5571 59.3912 62.4661C59.0605 62.5041 58.619 62.6662 58.2866 62.8167C57.845 62.7572 57.1835 63.0565 56.6295 63.2334V63.3426C56.9603 63.4137 57.5143 63.5708 57.7342 63.5443C57.9178 63.5228 58.1013 63.5013 58.2866 63.4798L58.2849 63.4782ZM58.3957 43.3225C59.9419 43.473 61.9314 43.2464 63.4776 43.0761C63.5884 43.0645 63.8084 42.9305 64.0316 42.7949C66.1319 43.005 68.4521 42.3154 70.5523 41.7663C70.5523 41.6919 70.5523 41.6191 70.5523 41.5447C68.4521 41.4306 66.1302 41.2355 64.0316 41.7994C61.599 42.0673 59.3912 42.4311 56.9619 43.048C56.9255 43.0893 56.8875 43.1306 56.8511 43.172C56.8511 43.2828 58.1757 43.3489 58.3973 43.3225H58.3957ZM62.5945 31.7761C64.6915 31.6521 66.2427 31.151 68.3413 30.4878V30.2662C67.8997 30.2001 65.1347 29.8346 64.9147 29.8594C64.1408 29.9801 63.3685 30.1042 62.5945 30.2265C61.9314 29.8578 61.7081 29.8826 60.9375 29.9702C60.3835 30.0314 57.8433 31.3213 56.9603 31.538V31.6488C56.9603 31.7596 57.9525 31.8637 58.1741 31.8389C58.8372 31.9812 60.3835 32.3582 60.9375 32.2954C61.7098 32.2077 61.9297 32.2954 62.5945 31.7761ZM59.8311 60.4204C61.7098 60.2055 63.5884 59.9954 65.4671 59.7904C66.4626 59.6829 67.2349 59.5985 68.2305 59.2727C68.2668 59.2331 68.3049 59.1917 68.3413 59.152V59.0412C65.7995 58.7551 62.4837 59.3406 59.8311 59.6465C59.2804 59.7093 58.2849 59.8251 57.6234 60.1244C57.4018 60.2236 57.1819 60.3245 56.9619 60.4237C56.9983 60.4188 57.0363 60.4155 57.0727 60.4105C57.9541 60.6371 58.9497 60.5213 59.8328 60.4204H59.8311ZM61.2682 34.8041C63.81 34.5163 66.4626 34.0053 68.8936 33.3075C68.93 33.2661 68.968 33.2264 69.0044 33.1851C69.0044 33.1487 69.0044 33.1107 69.0044 33.0743C67.3457 32.9155 66.2427 32.7038 64.584 32.8858C63.476 33.0065 62.2621 33.0313 61.2682 33.2562C61.0847 33.2033 60.8995 33.1503 60.7159 33.0974C59.8295 33.4199 58.948 33.7424 57.9525 34.1906C57.8433 34.2038 57.4018 34.255 57.4018 34.4766C57.4018 34.5874 57.8417 34.647 57.9525 34.6338C58.948 34.8487 59.8311 34.857 60.7159 35.0902C60.8995 34.9959 61.083 34.9 61.2682 34.8057V34.8041ZM69.1152 53.4251C69.1152 53.3507 69.1152 53.278 69.1152 53.2035C65.5779 53.1324 62.5945 53.9047 59.1696 53.8568C58.6173 54.1429 58.0633 54.3165 57.5126 54.4918C57.4762 54.5331 57.4382 54.5745 57.4018 54.6158C57.4018 54.6158 58.8372 54.892 59.1696 54.9631C62.1513 54.2867 65.7978 54.214 69.1152 53.4251ZM68.672 56.3489C68.7084 56.3076 68.7464 56.2679 68.7828 56.2266V56.1158C67.5673 55.9024 60.4943 56.683 59.1696 56.8434C58.5048 56.9195 57.9525 57.2056 57.4018 57.3825V57.4933C57.9525 57.6504 58.5048 57.8059 59.1696 57.7298C60.7142 57.5429 67.5657 56.7888 68.672 56.3489ZM63.0361 40.6914C63.5884 40.5922 64.1408 40.4946 64.6931 40.397C65.3563 39.8827 65.6887 39.8463 66.3518 39.7752C67.6781 39.633 68.4504 39.4395 69.6675 38.9798C69.7039 38.9384 69.742 38.8987 69.7784 38.8574C69.7784 38.821 69.7784 38.7846 69.7784 38.7482C69.3352 38.6837 67.7889 38.4026 67.4565 38.439C66.461 38.6556 65.6887 38.8508 64.6931 38.4059C64.1408 38.4307 63.5884 38.4539 63.0361 38.4803C62.3746 38.5548 61.5973 38.7516 60.9375 38.7168C60.1635 39.1352 59.5004 39.3237 58.7281 39.6346C58.3957 39.7835 57.845 39.9588 57.6234 40.096C57.587 40.1374 57.5506 40.1771 57.5143 40.2184C57.5143 40.3292 58.5081 40.4351 58.7281 40.5194C59.502 40.6517 60.1635 40.6848 60.9375 40.9295C61.599 40.7443 62.3729 40.7675 63.0361 40.693V40.6914ZM60.9375 37.718C63.9192 37.3789 66.4626 36.992 69.3368 36.137V35.917C66.4626 35.664 63.9192 35.8311 60.9375 36.1701C59.7203 36.309 58.8372 36.7423 57.6234 37.2169V37.4368C58.0649 37.4947 59.6112 37.7593 59.8311 37.7345C60.1999 37.7295 60.5687 37.7246 60.9375 37.7196V37.718ZM66.241 45.5418C67.6781 45.3863 68.672 45.0605 70.1091 44.6901V44.4685C68.7812 44.2734 67.6765 44.2816 66.241 44.4354C65.725 44.4917 65.2091 44.5479 64.6931 44.6041C62.2605 44.8704 60.0527 45.1217 57.6217 45.8477V45.9585C57.6217 45.9585 59.0588 46.3438 59.2804 46.319C61.6006 46.0511 63.9208 45.7915 66.241 45.5418ZM62.5945 48.7087C62.7781 48.7996 62.9617 48.8889 63.1469 48.9799C63.3304 48.8856 63.5157 48.7914 63.6992 48.6971C64.4748 48.5003 65.1347 48.4276 65.9103 48.3449C66.0938 48.3614 66.2791 48.3796 66.4626 48.3961C66.8314 48.3564 67.2002 48.3168 67.569 48.2771C68.2321 48.206 69.1169 47.8917 69.6692 47.6139C69.7056 47.5726 69.7436 47.5329 69.78 47.4915C69.78 47.4552 69.78 47.4171 69.78 47.3807C69.3368 47.3162 68.4521 47.0764 68.1213 47.1112C66.6462 47.2666 65.1727 47.427 63.6992 47.5908C63.5157 47.5378 63.3321 47.4833 63.1469 47.4304C62.9633 47.561 62.7797 47.6933 62.5945 47.8239C62.0786 47.8818 61.5642 47.9397 61.0483 47.9976C60.2727 48.0852 59.5004 48.0637 58.8389 48.2506C58.5081 48.3994 58.0649 48.5615 57.7342 48.712C57.6978 48.7533 57.6598 48.7947 57.6234 48.836C57.6234 48.9468 59.1713 49.0973 59.3912 49.0725C60.4596 48.9501 61.5279 48.8278 62.5962 48.7087H62.5945ZM62.3729 51.611C63.0725 51.5333 63.7736 51.4555 64.4732 51.3778C64.8039 51.3414 65.2438 51.4043 65.5779 51.5895C65.9466 51.5498 66.3154 51.5101 66.6842 51.4704C66.8678 51.3398 67.053 51.2091 67.2366 51.0785C67.4218 51.095 67.6053 51.1132 67.7906 51.1298C68.3793 50.8817 68.9697 50.6353 69.5601 50.3889V50.2781C69.0077 50.2268 68.3429 50.1855 67.7906 50.0218C67.6053 50.078 67.4218 50.1342 67.2366 50.1921C67.053 50.1011 66.8678 50.0102 66.6842 49.9192C66.5006 49.9027 66.3171 49.8845 66.1319 49.868C65.9467 49.9242 65.7631 49.9821 65.5779 50.0383C64.8039 50.5658 63.5884 50.589 62.7053 50.6866C61.9297 50.7726 61.379 50.7246 60.4943 50.6039C60.0527 50.6535 58.2849 51.3017 57.7325 51.5862C57.7325 51.6606 57.7325 51.7334 57.7325 51.8078C58.6156 51.9252 59.5004 52.1567 60.3835 52.1667C60.4199 52.1617 60.4579 52.1584 60.4943 52.1534C61.1574 51.9665 61.7098 51.6821 62.3729 51.6077V51.611Z" fill="#77B3D9"/>
<path d="M22.8917 62.6176C22.8917 60.4049 23.1133 57.6035 22.8917 55.0931C22.6718 52.5811 22.0103 50.8001 20.6923 49.8988C19.9216 49.2439 19.9216 48.0267 20.8031 47.1155C22.6718 45.3874 22.8934 42.9217 22.8934 40.7073C22.8934 39.8226 22.8934 38.8254 22.8934 37.9406C22.8934 34.3983 22.8934 29.5297 22.4535 24.9489C21.9012 20.3846 20.8031 16.4602 18.8219 14.3352C17.5006 12.9957 18.3804 11.1931 20.3615 11.2163C20.8014 11.2592 21.243 11.1898 21.6829 11.122C23.0025 10.9186 24.433 10.3679 25.8652 9.71135C32.0319 6.91323 35.7776 5.16358 42.6142 4.25403C62.9154 1.6312 70.7806 19.819 72.8792 35.7279C72.9883 37.1551 73.3207 39.7779 74.9794 40.1682C76.6381 40.6726 76.7506 42.0998 75.3118 43.2359C74.0947 44.2397 73.2099 45.9877 73.0991 47.658C71.5578 65.8143 67.8833 90.0316 43.0541 93.1754C38.8635 93.7244 34.5655 93.8765 30.489 93.4714C28.7261 93.1737 26.9649 92.8793 25.0929 92.8297C23.4424 92.6346 21.7904 92.7801 20.2507 93.3507C18.2696 93.9923 17.2823 92.4907 18.6003 90.7311C20.8014 87.6188 21.6812 84.8273 22.0103 81.0154C22.561 74.8437 22.8901 68.705 22.8901 62.6193L22.8917 62.6176ZM30.9289 91.6341C34.6746 92.0889 39.0835 91.9218 43.0541 91.4026C50.8862 90.3706 58.5082 86.0577 62.7071 79.9537C67.2366 73.5885 70.4449 61.4253 71.3296 47.7225C71.4404 45.7198 72.6576 43.1615 74.3163 41.893C72.8792 41.4796 71.5512 40.2856 71.1097 36.1248C69.8925 25.1837 66.2444 16.6951 60.7176 11.5602C56.0789 7.20925 49.2308 5.14704 42.6142 6.02352C39.745 6.39727 34.4547 7.56646 30.8197 9.202C26.8541 10.993 23.8807 12.9907 20.1416 13.0205C22.6718 15.7243 23.5532 19.136 23.884 22.7362C24.4347 28.9608 24.8746 37.084 24.4347 43.5699C24.2147 46.1464 21.9045 48.3823 21.9028 48.3839C21.9028 48.3839 24.3239 50.2262 24.4347 52.7548C24.8746 63.0906 24.6563 70.4282 23.7748 80.9642C23.4457 84.8885 22.5643 88.0091 19.9249 91.6291C23.3349 90.4335 26.7483 91.1313 30.9322 91.6341H30.9289ZM38.8635 50.7934C38.8635 49.1331 39.7466 46.9088 41.5095 45.5693C41.5095 45.5693 38.8635 44.2645 38.8635 41.2762C38.8635 34.8564 38.7527 28.0116 38.5328 20.626C42.9416 19.1343 49.0125 19.4717 51.7709 22.9015C53.9803 25.6186 55.8556 31.2661 56.188 39.6373C56.2988 41.3953 54.6418 43.1383 53.6479 44.0346C55.9681 45.5279 56.2988 47.3735 56.2988 48.3674C56.188 60.1122 54.2019 70.3009 50.6679 73.8333C48.2385 76.2345 44.817 77.665 41.5095 78.1049C40.5156 78.2372 39.4142 78.2736 38.422 78.1876C38.6419 67.8649 38.8619 60.8647 38.8619 50.7918L38.8635 50.7934ZM49.5648 72.6426C53.6479 68.5959 54.5327 53.8892 54.5327 48.5758C54.5327 47.4694 53.7587 46.3432 52.5465 45.6057C51.5526 44.9524 51.5526 43.6228 52.5465 42.7282C53.7604 41.6962 54.4218 40.7321 54.4218 39.8474C54.4218 29.6785 51.7693 20.3184 41.5111 21.6645C41.1804 21.7075 40.7389 21.7671 40.2973 21.9374C40.5189 28.215 40.6297 34.6199 40.628 41.0397C40.628 42.1461 41.4003 43.4806 42.3926 43.9023C43.7156 44.6134 43.8264 45.9282 42.5034 46.8757C41.4003 47.7952 40.628 49.229 40.628 50.5553C40.628 59.1878 40.4064 67.8501 40.1882 76.5107C43.6064 76.0509 46.8064 75.3084 49.5648 72.6409V72.6426Z" fill="#F2F2F2"/>
</g>
<defs>
<clipPath id="clip0_976_2313">
<rect width="100" height="100" fill="white"/>
</clipPath>
</defs>
</svg>
